<svg xmlns="http://www.w3.org/2000/svg" xmlns:xlink="http://www.w3.org/1999/xlink" version="1.1" width="256" height="256" viewBox="0 0 256 256" xml:space="preserve">

<defs>
</defs>
<g style="stroke: none; stroke-width: 0; stroke-dasharray: none; stroke-linecap: butt; stroke-linejoin: miter; stroke-miterlimit: 10; fill: none; fill-rule: nonzero; opacity: 1;" transform="translate(1.4065934065934016 1.4065934065934016) scale(2.81 2.81)" >
	<path d="M 49.943 60.607 c -0.437 -0.337 -1.064 -0.259 -1.403 0.179 c -0.338 0.437 -0.258 1.064 0.179 1.403 c 5.466 4.232 10.565 9.244 15.219 14.967 c 0.898 0.91 0.89 2.382 -0.02 3.28 c -0.854 0.843 -2.546 0.739 -3.481 -0.209 c -0.013 -0.013 -0.031 -0.018 -0.045 -0.03 c -0.056 -0.064 -0.098 -0.135 -0.158 -0.196 l -8.978 -9.09 c -0.39 -0.392 -1.021 -0.396 -1.415 -0.009 c -0.393 0.389 -0.396 1.021 -0.009 1.415 l 8.978 9.089 c 0.898 0.91 0.89 2.381 -0.021 3.28 c -0.91 0.897 -2.382 0.888 -3.278 -0.02 l -1.992 -2.018 c 0 0 0 0 0 0 c 0 0 0 0 -0.001 -0.001 L 44.54 73.56 c -0.388 -0.392 -1.022 -0.397 -1.414 -0.008 c -0.393 0.388 -0.397 1.02 -0.009 1.414 l 8.978 9.088 c 0.898 0.91 0.89 2.382 -0.021 3.28 c -0.435 0.429 -1.013 0.665 -1.629 0.665 c -0.005 0 -0.01 0 -0.015 0 c -0.622 -0.004 -1.202 -0.247 -1.636 -0.686 l -10.97 -11.106 c -0.389 -0.392 -1.021 -0.396 -1.414 -0.009 c -0.393 0.389 -0.397 1.021 -0.009 1.415 l 9.429 9.545 c -5.987 2.829 -15.863 -7.772 -24.814 -18.25 l 5.642 -18.217 h 3.847 c 0.552 0 1 -0.447 1 -1 c 0 -0.553 -0.448 -1 -1 -1 h -3.227 l 0.615 -1.986 c 0.083 -0.266 0.05 -0.554 -0.088 -0.794 c -0.138 -0.241 -0.371 -0.413 -0.642 -0.476 c -7.086 -1.635 -12.867 -2.52 -18.192 -2.784 c -0.273 -0.016 -0.54 0.085 -0.739 0.274 c -0.198 0.189 -0.311 0.451 -0.311 0.725 v 28.158 c 0 0.553 0.448 1 1 1 h 10.15 c 0.438 0 0.826 -0.285 0.955 -0.704 l 0.291 -0.939 c 8.313 9.671 16.756 18.49 23.408 18.49 c 1.258 0 2.447 -0.335 3.564 -1.02 l 0.083 0.084 c 0.843 0.853 1.957 1.281 3.072 1.281 c 1.097 0 2.194 -0.414 3.034 -1.244 c 0.631 -0.623 1.027 -1.393 1.193 -2.203 c 0.744 0.526 1.613 0.798 2.488 0.798 c 1.098 0 2.195 -0.414 3.035 -1.244 c 0.882 -0.872 1.298 -2.033 1.269 -3.185 c 0.3 0.057 0.603 0.086 0.905 0.086 c 1.099 0 2.174 -0.38 2.954 -1.15 c 1.693 -1.673 1.711 -4.413 0.103 -6.036 C 60.739 70.053 55.53 64.933 49.943 60.607 z M 9.923 70.808 v -26.1 c 4.651 0.3 9.707 1.083 15.742 2.436 l -7.329 23.663 H 9.923 z" style="stroke: none; stroke-width: 1; stroke-dasharray: none; stroke-linecap: butt; stroke-linejoin: miter; stroke-miterlimit: 10; fill: rgb(0,0,0); fill-rule: nonzero; opacity: 1;" transform=" matrix(1 0 0 1 0 0) " stroke-linecap="round" />
	<path d="M 81.766 42.925 c -0.198 -0.188 -0.465 -0.288 -0.739 -0.274 c -5.325 0.264 -11.106 1.148 -18.192 2.784 c -0.271 0.063 -0.504 0.235 -0.643 0.476 c -0.139 0.241 -0.17 0.529 -0.088 0.794 l 0.577 1.863 c -5.214 -1.905 -12.398 -2.99 -18.625 -2.746 c -3.521 0 -7.794 2.473 -11.431 6.615 c -2.668 3.039 -5.352 7.571 -4.882 11.175 c 0.034 0.259 0.167 0.493 0.371 0.654 c 1.302 1.032 2.677 1.55 4.138 1.55 c 2.432 0 5.101 -1.436 8.059 -4.319 c 2.082 -0.026 4.589 -1.363 5.694 -2.122 c 0.455 -0.312 0.57 -0.935 0.258 -1.391 c -0.312 -0.455 -0.935 -0.572 -1.39 -0.258 c -1.402 0.962 -3.601 1.888 -4.859 1.76 c -0.299 -0.027 -0.594 0.077 -0.806 0.289 c -4.979 4.992 -7.706 4.446 -9.514 3.177 c -0.093 -2.427 1.606 -5.973 4.435 -9.196 c 3.214 -3.66 7.018 -5.934 9.967 -5.935 c 6.637 -0.257 14.338 1.028 19.348 3.205 l 5.798 18.72 l -2.98 1.814 c -0.473 0.287 -0.622 0.902 -0.335 1.374 c 0.188 0.31 0.518 0.48 0.855 0.48 c 0.177 0 0.356 -0.047 0.519 -0.146 l 2.551 -1.553 l 0.12 0.388 c 0.13 0.419 0.517 0.704 0.955 0.704 h 10.15 c 0.553 0 1 -0.447 1 -1 V 43.649 C 82.077 43.376 81.965 43.114 81.766 42.925 z M 80.077 70.808 h -8.413 l -7.33 -23.663 c 6.036 -1.353 11.091 -2.136 15.743 -2.436 V 70.808 z" style="stroke: none; stroke-width: 1; stroke-dasharray: none; stroke-linecap: butt; stroke-linejoin: miter; stroke-miterlimit: 10; fill: rgb(0,0,0); fill-rule: nonzero; opacity: 1;" transform=" matrix(1 0 0 1 0 0) " stroke-linecap="round" />
	<path d="M 17.385 28.808 c -0.31 0 -0.615 -0.143 -0.811 -0.413 c -0.324 -0.447 -0.225 -1.072 0.223 -1.396 L 39.81 10.314 c 0.413 -0.299 0.985 -0.241 1.328 0.138 l 6.985 7.698 L 72.054 1.858 c 0.306 -0.208 0.703 -0.23 1.03 -0.057 c 0.327 0.173 0.532 0.513 0.532 0.884 v 5.367 c 0 0.552 -0.447 1 -1 1 s -1 -0.448 -1 -1 V 4.576 L 48.529 20.292 c -0.41 0.281 -0.968 0.216 -1.303 -0.155 l -6.968 -7.678 L 17.971 28.617 C 17.794 28.746 17.588 28.808 17.385 28.808 z" style="stroke: none; stroke-width: 1; stroke-dasharray: none; stroke-linecap: butt; stroke-linejoin: miter; stroke-miterlimit: 10; fill: rgb(0,0,0); fill-rule: nonzero; opacity: 1;" transform=" matrix(1 0 0 1 0 0) " stroke-linecap="round" />
	<path d="M 72.616 3.685 c -0.107 0 -0.218 -0.018 -0.325 -0.055 l -4.894 -1.684 c -0.522 -0.18 -0.8 -0.749 -0.62 -1.271 c 0.18 -0.521 0.747 -0.802 1.27 -0.621 l 4.894 1.684 c 0.522 0.18 0.8 0.749 0.62 1.271 C 73.419 3.425 73.031 3.685 72.616 3.685 z" style="stroke: none; stroke-width: 1; stroke-dasharray: none; stroke-linecap: butt; stroke-linejoin: miter; stroke-miterlimit: 10; fill: rgb(0,0,0); fill-rule: nonzero; opacity: 1;" transform=" matrix(1 0 0 1 0 0) " stroke-linecap="round" />
	<path d="M 26.589 39.801 c -0.552 0 -1 -0.448 -1 -1 v -7.668 c 0 -0.552 0.448 -1 1 -1 c 0.552 0 1 0.448 1 1 v 7.668 C 27.589 39.354 27.142 39.801 26.589 39.801 z" style="stroke: none; stroke-width: 1; stroke-dasharray: none; stroke-linecap: butt; stroke-linejoin: miter; stroke-miterlimit: 10; fill: rgb(0,0,0); fill-rule: nonzero; opacity: 1;" transform=" matrix(1 0 0 1 0 0) " stroke-linecap="round" />
	<path d="M 35.795 42.576 c -0.552 0 -1 -0.448 -1 -1 V 24.46 c 0 -0.552 0.448 -1 1 -1 c 0.552 0 1 0.448 1 1 v 17.117 C 36.795 42.129 36.347 42.576 35.795 42.576 z" style="stroke: none; stroke-width: 1; stroke-dasharray: none; stroke-linecap: butt; stroke-linejoin: miter; stroke-miterlimit: 10; fill: rgb(0,0,0); fill-rule: nonzero; opacity: 1;" transform=" matrix(1 0 0 1 0 0) " stroke-linecap="round" />
	<path d="M 45 41.651 c -0.552 0 -1 -0.448 -1 -1 V 26.195 c 0 -0.552 0.448 -1 1 -1 s 1 0.448 1 1 v 14.456 C 46 41.204 45.552 41.651 45 41.651 z" style="stroke: none; stroke-width: 1; stroke-dasharray: none; stroke-linecap: butt; stroke-linejoin: miter; stroke-miterlimit: 10; fill: rgb(0,0,0); fill-rule: nonzero; opacity: 1;" transform=" matrix(1 0 0 1 0 0) " stroke-linecap="round" />
	<path d="M 54.206 42.576 c -0.553 0 -1 -0.448 -1 -1 V 24.46 c 0 -0.552 0.447 -1 1 -1 c 0.553 0 1 0.448 1 1 v 17.117 C 55.206 42.129 54.758 42.576 54.206 42.576 z" style="stroke: none; stroke-width: 1; stroke-dasharray: none; stroke-linecap: butt; stroke-linejoin: miter; stroke-miterlimit: 10; fill: rgb(0,0,0); fill-rule: nonzero; opacity: 1;" transform=" matrix(1 0 0 1 0 0) " stroke-linecap="round" />
	<path d="M 63.411 39.801 c -0.553 0 -1 -0.448 -1 -1 v -19.85 c 0 -0.552 0.447 -1 1 -1 s 1 0.448 1 1 v 19.85 C 64.411 39.354 63.963 39.801 63.411 39.801 z" style="stroke: none; stroke-width: 1; stroke-dasharray: none; stroke-linecap: butt; stroke-linejoin: miter; stroke-miterlimit: 10; fill: rgb(0,0,0); fill-rule: nonzero; opacity: 1;" transform=" matrix(1 0 0 1 0 0) " stroke-linecap="round" />
	<path d="M 72.616 37.952 c -0.553 0 -1 -0.448 -1 -1 V 12.685 c 0 -0.552 0.447 -1 1 -1 s 1 0.448 1 1 v 24.267 C 73.616 37.504 73.169 37.952 72.616 37.952 z" style="stroke: none; stroke-width: 1; stroke-dasharray: none; stroke-linecap: butt; stroke-linejoin: miter; stroke-miterlimit: 10; fill: rgb(0,0,0); fill-rule: nonzero; opacity: 1;" transform=" matrix(1 0 0 1 0 0) " stroke-linecap="round" />
	<path d="M 17.384 38.801 c -0.552 0 -1 -0.448 -1 -1 v -1.668 c 0 -0.552 0.448 -1 1 -1 c 0.552 0 1 0.448 1 1 v 1.668 C 18.384 38.354 17.936 38.801 17.384 38.801 z" style="stroke: none; stroke-width: 1; stroke-dasharray: none; stroke-linecap: butt; stroke-linejoin: miter; stroke-miterlimit: 10; fill: rgb(0,0,0); fill-rule: nonzero; opacity: 1;" transform=" matrix(1 0 0 1 0 0) " stroke-linecap="round" />
</g>
</svg>